HIERARCHY
ROOT Hips
{
	OFFSET 0.00000 0.00000 0.00000
	CHANNELS 6 Xposition Yposition Zposition Zrotation Yrotation Xrotation 
	JOINT LHipJoint
	{
		OFFSET 0 0 0
		CHANNELS 3 Zrotation Yrotation Xrotation
		JOINT LeftUpLeg
		{
			OFFSET 1.61024 -1.73873 0.75100
			CHANNELS 3 Zrotation Yrotation Xrotation
			JOINT LeftLeg
			{
				OFFSET 2.29819 -6.31424 0.00000
				CHANNELS 3 Zrotation Yrotation Xrotation
				JOINT LeftFoot
				{
					OFFSET 2.76618 -7.60002 0.00000
					CHANNELS 3 Zrotation Yrotation Xrotation
					JOINT LeftToeBase
					{
						OFFSET 0.16838 -0.46263 2.02361
						CHANNELS 3 Zrotation Yrotation Xrotation
						End Site
						{
							OFFSET 0.00000 -0.00000 1.04662
						}
					}
				}
			}
		}
	}
	JOINT RHipJoint
	{
		OFFSET 0 0 0
		CHANNELS 3 Zrotation Yrotation Xrotation
		JOINT RightUpLeg
		{
			OFFSET -1.46153 -1.73873 0.75100
			CHANNELS 3 Zrotation Yrotation Xrotation
			JOINT RightLeg
			{
				OFFSET -2.38373 -6.54924 0.00000
				CHANNELS 3 Zrotation Yrotation Xrotation
				JOINT RightFoot
				{
					OFFSET -2.80314 -7.70157 0.00000
					CHANNELS 3 Zrotation Yrotation Xrotation
					JOINT RightToeBase
					{
						OFFSET -0.16142 -0.44349 2.02101
						CHANNELS 3 Zrotation Yrotation Xrotation
						End Site
						{
							OFFSET -0.00000 -0.00000 1.04381
						}
					}
				}
			}
		}
	}
	JOINT LowerBack
	{
		OFFSET 0 0 0
		CHANNELS 3 Zrotation Yrotation Xrotation
		JOINT Spine
		{
			OFFSET -0.01629 1.66985 0.14750
			CHANNELS 3 Zrotation Yrotation Xrotation
			JOINT Spine1
			{
				OFFSET 0.02086 1.62378 0.20980
				CHANNELS 3 Zrotation Yrotation Xrotation
				JOINT Neck
				{
					OFFSET 0 0 0
					CHANNELS 3 Zrotation Yrotation Xrotation
					JOINT Neck1
					{
						OFFSET -0.05690 1.78719 0.08702
						CHANNELS 3 Zrotation Yrotation Xrotation
						JOINT Head
						{
							OFFSET 0.16035 1.73871 -0.38470
							CHANNELS 3 Zrotation Yrotation Xrotation
							End Site
							{
								OFFSET 0.05645 1.80914 -0.14081
							}
						}
					}
				}
				JOINT LeftShoulder
				{
					OFFSET 0 0 0
					CHANNELS 3 Zrotation Yrotation Xrotation
					JOINT LeftArm
					{
						OFFSET 2.83089 1.66494 -0.46008
						CHANNELS 3 Zrotation Yrotation Xrotation
						JOINT LeftForeArm
						{
							OFFSET 5.54893 -0.00000 -0.00000
							CHANNELS 3 Zrotation Yrotation Xrotation
							JOINT LeftHand
							{
								OFFSET 3.02898 -0.00000 -0.00000
								CHANNELS 3 Zrotation Yrotation Xrotation
								JOINT LeftFingerBase
								{
									OFFSET 0 0 0
									CHANNELS 3 Zrotation Yrotation Xrotation
									JOINT LeftHandIndex1
									{
										OFFSET 0.64095 -0.00000 -0.00000
										CHANNELS 3 Zrotation Yrotation Xrotation
										End Site
										{
											OFFSET 0.51675 -0.00000 -0.00000
										}
									}
								}
								JOINT LThumb
								{
									OFFSET 0 0 0
									CHANNELS 3 Zrotation Yrotation Xrotation
									End Site
									{
										OFFSET 0.52464 -0.00000 0.52464
									}
								}
							}
						}
					}
				}
				JOINT RightShoulder
				{
					OFFSET 0 0 0
					CHANNELS 3 Zrotation Yrotation Xrotation
					JOINT RightArm
					{
						OFFSET -2.84442 1.45761 -0.18088
						CHANNELS 3 Zrotation Yrotation Xrotation
						JOINT RightForeArm
						{
							OFFSET -5.35190 -0.00000 -0.00000
							CHANNELS 3 Zrotation Yrotation Xrotation
							JOINT RightHand
							{
								OFFSET -3.02531 -0.00000 -0.00000
								CHANNELS 3 Zrotation Yrotation Xrotation
								JOINT RightFingerBase
								{
									OFFSET 0 0 0
									CHANNELS 3 Zrotation Yrotation Xrotation
									JOINT RightHandIndex1
									{
										OFFSET -0.78389 -0.00000 -0.00000
										CHANNELS 3 Zrotation Yrotation Xrotation
										End Site
										{
											OFFSET -0.63199 -0.00000 -0.00000
										}
									}
								}
								JOINT RThumb
								{
									OFFSET 0 0 0
									CHANNELS 3 Zrotation Yrotation Xrotation
									End Site
									{
										OFFSET -0.64164 -0.00000 0.64164
									}
								}
							}
						}
					}
				}
			}
		}
	}
}
MOTION
Frames: 13
Frame Time: .0083333
0.5251 17.2416 1.5121 0 0 0 0 0 0 -21 0 0 0 0 0 0 0 0 0 0 0 0 0 0 21 0 0 0 0 0 0 0 0 0 0 0 0 0 0 0 0 0 0 0 0 0 0 -16 0 0 21 0 0 11 0 0 0 -8 0 0 0 0 0 0 0 0 0 0 0 0 0 0 0 0 0 0 0 0 8 0 0 0 0 0 0 0 0 0 0 0 0 0 0 0 0 0
0.5251 17.2416 1.5121 -179.1470 39.5175 -166.8150 0.0000 0.0000 0.0000 -3.6644 -28.0505 -28.7862 2.0938 9.0588 25.9794 0.0026 -9.0729 -6.4067 2.2005 -9.2717 -26.6491 0.0000 0.0000 0.0000 22.0462 -1.4688 -12.9596 -2.1294 -9.1305 26.2045 -0.8031 -22.9079 -36.8883 -0.0527 1.4813 -4.0741 1.7650 -0.1158 -8.2777 4.0260 1.5946 -12.6352 3.2159 1.5128 -8.8884 -5.1928 -0.9724 -4.2083 21.8117 0.9065 -6.1599 7.5775 0.7914 -1.1164 -0.0000 0.0000 0.0000 -107.4848 -43.8566 58.7056 148.7051 -41.9778 -107.7334 -0.0000 0.0000 -81.7964 20.8870 32.3934 11.5541 -7.1250 0.0000 -0.0000 -13.9893 63.6331 -6.3837 -0.0000 0.0000 0.0000 102.0233 43.7223 68.2081 -149.1379 41.6210 -108.0218 0.0000 -0.0000 -72.8332 -29.9488 12.2998 -6.9973 7.1250 -0.0000 -0.0000 -1.8661 -15.8605 -1.2857
0.5400 17.2415 1.5060 -179.2630 39.3989 -167.0960 0.0000 0.0000 0.0000 -3.9271 -28.0095 -28.3841 2.0544 8.9784 25.7279 -0.0055 -9.1299 -6.2976 2.2220 -9.3139 -26.7823 0.0000 0.0000 0.0000 22.0247 -1.4615 -12.5116 -2.1014 -9.0741 26.0273 -0.8305 -23.0086 -37.1462 -0.0395 1.2828 -3.5272 1.7606 -0.0974 -8.4773 4.0816 1.6706 -12.7925 3.2803 1.5756 -8.9631 -5.3560 -0.9868 -4.0999 21.8359 0.8898 -6.1843 7.6146 0.7759 -1.1393 -0.0000 0.0000 0.0000 -107.9160 -44.2042 59.8013 149.3387 -41.4536 -108.1550 -0.0000 0.0000 -80.0272 20.1651 32.5436 11.1750 -7.1250 0.0000 -0.0000 -14.9461 63.5862 -6.8134 -0.0000 0.0000 0.0000 101.7692 43.9191 68.0314 -149.8251 41.0428 -108.4757 0.0000 -0.0000 -72.7298 -28.3527 11.9308 -6.3655 7.1250 -0.0000 -0.0000 -0.7990 -16.4797 -0.5396
0.5550 17.2413 1.5008 -179.4570 39.3383 -167.4790 0.0000 0.0000 0.0000 -4.3012 -27.8840 -27.9855 2.0346 8.9377 25.6008 -0.0131 -9.2426 -6.2399 2.2820 -9.4303 -27.1507 0.0000 0.0000 0.0000 21.9274 -1.4094 -11.9968 -2.0729 -9.0162 25.8461 -0.8407 -23.1689 -37.3820 -0.0284 1.0875 -2.9897 1.6647 -0.1057 -8.6389 4.1214 1.6952 -12.8980 3.3789 1.6133 -8.9980 -5.3391 -0.9960 -4.2256 21.7733 0.8120 -5.9200 7.5890 0.7543 -1.0315 -0.0000 -0.0000 0.0000 -108.1183 -44.5554 60.7558 150.2456 -40.6819 -108.7508 -0.0000 0.0000 -79.3977 20.1452 32.0180 11.0063 -7.1250 0.0000 -0.0000 -14.5454 63.0717 -6.4514 -0.0000 -0.0000 0.0000 101.7552 44.0115 68.1632 -150.5185 40.4448 -108.9283 0.0000 -0.0000 -72.7397 -26.9023 12.0087 -6.0261 7.1250 -0.0000 -0.0000 0.2117 -16.5639 0.1426
0.5716 17.2426 1.4956 -179.5070 39.2842 -167.7730 0.0000 0.0000 0.0000 -4.5097 -27.8105 -27.5269 2.0131 8.8934 25.4623 -0.0147 -9.3274 -6.2708 2.3380 -9.5372 -27.4905 0.0000 0.0000 0.0000 21.9577 -1.3697 -11.4788 -2.0429 -8.9549 25.6543 -0.8470 -23.3000 -37.5643 -0.0245 1.0097 -2.7755 1.6741 -0.1189 -8.8416 4.1851 1.7104 -12.9886 3.4451 1.6382 -8.9915 -5.3658 -0.9531 -4.3434 21.8205 0.8267 -5.6782 7.6086 0.7799 -0.9439 0.0000 -0.0000 0.0000 -108.2485 -44.8197 61.6668 151.1453 -39.8912 -109.3326 -0.0000 0.0000 -79.0099 19.5842 31.4378 10.5123 -7.1250 0.0000 -0.0000 -14.7334 62.3631 -6.2911 0.0000 -0.0000 0.0000 101.8707 44.0177 68.3896 -151.1164 39.9170 -109.3141 0.0000 -0.0000 -72.8622 -25.3925 12.3490 -5.7966 7.1250 -0.0000 -0.0000 1.2812 -16.3593 0.8687
0.5869 17.2424 1.4903 -179.6000 39.2078 -168.1160 0.0000 0.0000 0.0000 -4.7838 -27.6921 -27.0933 1.9976 8.8612 25.3620 -0.0213 -9.4977 -6.2768 2.3345 -9.5306 -27.4698 0.0000 0.0000 0.0000 21.9504 -1.3653 -10.9446 -2.0119 -8.8908 25.4542 -0.8565 -23.4384 -37.7706 -0.0232 0.9836 -2.7037 1.6567 -0.1522 -9.0147 4.2377 1.6975 -13.0797 3.5137 1.6500 -9.0008 -5.3138 -0.8654 -4.3252 21.8208 0.9287 -5.5795 7.5992 0.8328 -0.9339 -0.0000 -0.0000 0.0000 -108.4572 -44.9483 62.6200 152.0477 -39.0723 -109.9064 -0.0000 0.0000 -78.6852 18.8180 31.1014 9.9835 -7.1250 0.0000 -0.0000 -15.3390 61.8429 -6.3676 -0.0000 -0.0000 0.0000 101.9831 44.0084 68.6566 -151.7504 39.3450 -109.7184 0.0000 -0.0000 -73.2452 -23.9917 12.4889 -5.4974 7.1250 -0.0000 -0.0000 2.2596 -16.3590 1.5329
0.6037 17.2449 1.4851 -179.7490 39.1223 -168.4500 0.0000 0.0000 0.0000 -5.0548 -27.6723 -26.7036 1.9873 8.8395 25.2944 -0.0275 -9.6102 -6.2475 2.2715 -9.4101 -27.0867 0.0000 0.0000 0.0000 21.9037 -1.2617 -10.4089 -1.9779 -8.8198 25.2333 -0.8718 -23.6135 -38.0475 -0.0157 0.8080 -2.2207 1.5705 -0.2031 -9.2528 4.2961 1.6607 -13.1630 3.6282 1.6568 -8.9643 -5.2044 -0.7857 -4.2872 21.7101 1.0109 -5.5097 7.5425 0.8700 -0.9335 0.0000 0.0000 0.0000 -108.6826 -45.0913 63.5380 152.9357 -38.2404 -110.4611 -0.0000 0.0000 -78.5593 17.6571 30.6635 9.2209 -7.1250 0.0000 -0.0000 -16.2962 61.1329 -6.5018 0.0000 0.0000 0.0000 102.0137 43.9951 68.9072 -152.3345 38.8065 -110.0866 0.0000 -0.0000 -73.7364 -22.1579 13.0520 -5.2546 7.1250 -0.0000 -0.0000 3.5552 -15.9447 2.4466
0.6212 17.2462 1.4802 -179.7850 39.0436 -168.7080 0.0000 0.0000 0.0000 -5.2273 -27.5987 -26.3339 1.9775 8.8190 25.2307 -0.0357 -9.7317 -6.1900 2.1716 -9.2146 -26.4690 0.0000 0.0000 0.0000 21.9559 -1.1888 -9.8990 -1.9466 -8.7539 25.0285 -0.8718 -23.8010 -38.2609 -0.0115 0.6935 -1.9058 1.5846 -0.2497 -9.4879 4.4098 1.6266 -13.2151 3.7461 1.6580 -8.8949 -5.2522 -0.7168 -4.3531 21.6318 1.0654 -5.3770 7.5252 0.9029 -0.8925 0.0000 -0.0000 0.0000 -108.9062 -45.3643 64.3674 153.6845 -37.5185 -110.9209 -0.0000 0.0000 -78.4407 16.1720 29.7955 8.1999 -7.1250 0.0000 -0.0000 -17.2753 59.9458 -6.4158 0.0000 -0.0000 0.0000 102.0367 44.0659 69.0287 -152.8082 38.3615 -110.3821 0.0000 -0.0000 -74.4155 -20.0287 13.7035 -4.9357 7.1250 -0.0000 -0.0000 5.0457 -15.4689 3.5311
0.6370 17.2454 1.4757 -179.8530 38.9921 -169.0390 0.0000 0.0000 0.0000 -5.4619 -27.5263 -25.9040 1.9686 8.8004 25.1730 -0.0370 -9.8343 -6.2469 2.1367 -9.1452 -26.2504 0.0000 0.0000 0.0000 21.9684 -1.1670 -9.3522 -1.9154 -8.6877 24.8231 -0.8913 -23.9081 -38.4798 -0.0079 0.5724 -1.5728 1.6079 -0.2549 -9.6724 4.4758 1.6359 -13.2394 3.8074 1.6724 -8.8226 -5.4152 -0.7227 -4.6088 21.7011 1.0127 -5.1283 7.5779 0.9045 -0.7690 -0.0000 -0.0000 0.0000 -109.1919 -45.6569 65.2003 154.3940 -36.8170 -111.3495 -0.0000 0.0000 -78.3270 14.1553 29.7988 7.1440 -7.1250 0.0000 -0.0000 -19.4192 59.4818 -7.0302 -0.0000 -0.0000 0.0000 102.1077 44.2197 69.0404 -153.3051 37.8867 -110.6889 0.0000 -0.0000 -75.2831 -18.3144 14.0329 -4.5887 7.1250 -0.0000 -0.0000 6.2293 -15.2894 4.3926
0.6525 17.2440 1.4709 -180.0000 38.9477 -169.3780 0.0000 0.0000 0.0000 -5.7539 -27.4410 -25.5391 1.9634 8.7894 25.1387 -0.0376 -9.9126 -6.2956 2.1322 -9.1361 -26.2220 0.0000 0.0000 0.0000 21.9020 -1.1991 -8.8824 -1.8852 -8.6228 24.6222 -0.8936 -24.0094 -38.6063 -0.0073 0.5520 -1.5167 1.5910 -0.2465 -9.9095 4.4902 1.6611 -13.2751 3.8370 1.6959 -8.7327 -5.5580 -0.7094 -4.8544 21.7862 0.9763 -4.8164 7.6322 0.9169 -0.6316 -0.0000 0.0000 0.0000 -109.5455 -45.8725 65.8815 155.1273 -36.0736 -111.7852 -0.0000 0.0000 -78.4749 12.4653 31.1094 6.5158 -7.1250 0.0000 -0.0000 -22.2127 60.3055 -8.5403 -0.0000 0.0000 0.0000 102.2609 44.2620 69.3944 -153.8875 37.3196 -111.0442 0.0000 -0.0000 -75.7389 -17.1305 14.2170 -4.3289 7.1250 -0.0000 -0.0000 7.0415 -15.2078 4.9862
0.6673 17.2434 1.4624 -180.1330 38.9565 -169.7100 0.0000 0.0000 0.0000 -6.0508 -27.3530 -25.1718 1.9611 8.7847 25.1240 -0.0389 -9.9872 -6.3307 2.1145 -9.1006 -26.1106 0.0000 0.0000 0.0000 21.8265 -1.2174 -8.3914 -1.8530 -8.5529 24.4063 -0.8737 -24.1311 -38.6475 -0.0083 0.5898 -1.6208 1.6354 -0.1942 -10.1709 4.4749 1.7389 -13.3045 3.8021 1.7377 -8.6231 -5.4806 -0.6557 -4.9173 21.6352 0.9915 -4.6199 7.5681 0.9315 -0.5682 -0.0000 -0.0000 0.0000 -109.9369 -45.9738 66.7565 155.9211 -35.2475 -112.2480 -0.0000 0.0000 -78.6122 11.2854 31.9342 6.0255 -7.1250 0.0000 -0.0000 -24.1471 60.7745 -9.6059 -0.0000 -0.0000 0.0000 102.3211 44.3203 69.7546 -154.4634 36.7475 -111.3911 0.0000 -0.0000 -75.8494 -15.8235 14.5054 -4.0604 7.1250 -0.0000 -0.0000 7.9355 -15.0274 5.6620
0.6829 17.2428 1.4511 -180.2400 39.0173 -170.0300 0.0000 0.0000 0.0000 -6.3210 -27.2640 -24.7808 1.9619 8.7862 25.1287 -0.0381 -10.0466 -6.3910 2.0987 -9.0686 -26.0103 0.0000 0.0000 0.0000 21.7609 -1.1822 -7.8599 -1.8197 -8.4800 24.1817 -0.9015 -24.1496 -38.8044 -0.0059 0.4954 -1.3612 1.6886 -0.1536 -10.4520 4.4839 1.8031 -13.3374 3.7891 1.7744 -8.5071 -5.4004 -0.5909 -4.9602 21.5610 1.0152 -4.3506 7.5289 0.9544 -0.4883 -0.0000 -0.0000 0.0000 -110.2419 -46.0016 67.6411 156.6974 -34.4180 -112.6914 -0.0000 0.0000 -78.6520 10.4188 31.7574 5.5277 -7.1250 0.0000 -0.0000 -24.8944 60.4096 -9.7070 -0.0000 -0.0000 0.0000 102.3577 44.2502 70.2309 -155.0614 36.1411 -111.7464 0.0000 -0.0000 -75.6493 -14.4524 14.6485 -3.7291 7.1250 -0.0000 -0.0000 8.8669 -14.9977 6.3480
0.6998 17.2429 1.4402 -180.2480 39.0251 -170.2730 0.0000 0.0000 0.0000 -6.5011 -27.1076 -24.4486 1.9668 8.7965 25.1608 -0.0383 -10.1647 -6.4776 2.1726 -9.2167 -26.4757 0.0000 0.0000 0.0000 21.7956 -1.1303 -7.3242 -1.7840 -8.4009 23.9386 -0.9626 -24.1255 -39.0742 -0.0022 0.2998 -0.8238 1.8700 -0.1272 -10.7964 4.4908 1.8301 -13.3287 3.7032 1.7778 -8.3031 -5.3096 -0.5301 -5.1405 21.5370 1.0292 -4.0206 7.5057 0.9857 -0.3654 0.0000 -0.0000 0.0000 -110.2357 -46.0798 68.3455 157.2765 -33.7851 -113.0161 -0.0000 0.0000 -78.5898 9.3091 30.8311 4.8021 -7.1250 0.0000 -0.0000 -25.2482 59.3236 -9.1945 0.0000 -0.0000 0.0000 102.5517 44.2019 70.6530 -155.6745 35.5066 -112.1052 0.0000 -0.0000 -75.1802 -12.6878 14.3638 -3.1967 7.1250 -0.0000 -0.0000 10.0642 -15.4231 7.1378
